<svg width="91" height="40" viewBox="0 0 91 40" fill="none" xmlns="http://www.w3.org/2000/svg">
    <g clip-path="url(#clip0_8_594)">
        <path
            d="M41.1089 7.96796H45.3051V29.8H41.1089V27.0601H41.0233C39.867 28.7294 37.5984 30.3987 33.83 30.3987C29.8049 30.3987 26.5511 28.0866 26.5511 23.0786V7.96796H30.7473V21.9226C30.7473 24.8763 32.032 26.845 35.2002 26.845C38.7962 26.845 41.1089 24.6611 41.1089 21.3653V7.96667V7.96796ZM50.0147 29.7987V7.96667H54.2109V29.7987H50.0147ZM54.1915 0.60768V4.76412H50.0341V0.60768H54.1915ZM58.9192 29.7987V0.45993H63.1154V29.7987H58.9192ZM77.6732 26.4173V29.7987C76.6024 30.0125 75.918 30.0553 75.0183 30.0553C71.421 30.0553 69.238 28.6854 69.238 23.6346V11.4349H66.0697V7.96796H69.238V0.471594H73.4342V7.96796H77.6304V11.4349H73.4342V23.763C73.4342 26.0751 74.0759 26.5883 75.8752 26.5883C76.6024 26.5883 76.946 26.5456 77.6732 26.4173ZM90.9878 26.4173V29.7987C89.917 30.0125 89.2326 30.0553 88.3329 30.0553C84.7369 30.0553 82.5526 28.6854 82.5526 23.6346V11.4349H79.3844V7.96796H82.5526V0.471594H86.7488V7.96796H90.945V11.4349H86.7488V23.763C86.7488 26.0751 87.3918 26.5883 89.1898 26.5883C89.917 26.5883 90.2606 26.5456 90.9878 26.4173ZM2.75047 3.44733V3.69099H3.094V3.44733H2.75047ZM18.7666 15.9776V15.9024C21.0015 15.1455 22.9706 13.5928 22.9706 10.2607C22.9706 5.94612 19.713 3.44733 14.1478 3.44733H6.91429V7.04388H14.3371C17.176 7.04388 18.615 8.48249 18.615 10.8672C18.615 13.252 17.4418 14.6906 14.0337 14.6906H6.91558V7.04388H2.75047V26.9201H6.91558V17.9852H15.0941C17.9344 17.9852 19.6767 19.6143 19.6767 22.4526C19.6767 24.989 18.5398 26.9201 14.5263 26.9201H6.91429V30.5167H14.8284C20.4324 30.5167 24.0297 27.7911 24.0297 22.6043C24.0297 18.5528 21.6056 16.4727 18.7653 15.9789L18.7666 15.9776Z"
            fill="#012734" />
        <path d="M0.615326 0.379593H4.77176V4.53603H0.615326V0.379593Z" fill="#86969C" />
        <path
            d="M16.0969 34.788C17.0719 34.788 17.8144 35.553 17.8144 36.813C17.8144 38.073 17.0719 38.8305 16.0969 38.8305C15.4969 38.8305 15.1294 38.5605 14.9194 38.253H14.9044V40.053H14.1694V34.9005H14.9044V35.3505H14.9194C15.1294 35.0805 15.4969 34.788 16.0969 34.788ZM15.9769 38.223C16.6969 38.223 17.0419 37.563 17.0419 36.813C17.0419 36.063 16.6969 35.403 15.9769 35.403C15.3169 35.403 14.9119 35.943 14.9119 36.813C14.9119 37.6755 15.3169 38.223 15.9769 38.223ZM20.3068 38.838C19.1143 38.838 18.3943 38.013 18.3943 36.813C18.3943 35.6205 19.1143 34.7805 20.3143 34.7805C21.4993 34.7805 22.2193 35.613 22.2193 36.8055C22.2193 38.0055 21.4993 38.838 20.3068 38.838ZM20.3143 38.2305C21.0943 38.2305 21.4543 37.608 21.4543 36.813C21.4543 36.0105 21.0943 35.3955 20.3143 35.3955C19.5193 35.3955 19.1593 36.0105 19.1593 36.813C19.1593 37.608 19.5193 38.2305 20.3143 38.2305ZM24.4971 38.7255H23.7396L22.5546 34.9005H23.3496L24.1596 37.863H24.1746L24.9696 34.9005H25.7121L26.5071 37.863H26.5221L27.3396 34.9005H28.1046L26.9196 38.7255H26.1621L25.3371 35.778H25.3221L24.4971 38.7255ZM32.148 36.7305C32.148 36.8355 32.148 36.948 32.1405 37.008H29.2005C29.2155 37.6455 29.5905 38.238 30.348 38.238C31.023 38.238 31.2855 37.803 31.353 37.548H32.103C31.9005 38.283 31.338 38.838 30.333 38.838C29.118 38.838 28.443 37.9755 28.443 36.8055C28.443 35.6055 29.163 34.7805 30.333 34.7805C31.4955 34.7805 32.148 35.5455 32.148 36.7305ZM29.2005 36.4305H31.383C31.383 35.8305 30.963 35.3805 30.3105 35.3805C29.6955 35.3805 29.2455 35.8005 29.2005 36.4305ZM34.6963 34.8105C34.8313 34.8105 34.9363 34.818 35.0488 34.833V35.538C34.9588 35.523 34.8913 35.5155 34.8013 35.5155C34.1338 35.5155 33.6538 36.018 33.6538 36.7455V38.7255H32.9188V34.9005H33.6538V35.628H33.6688C33.8713 35.148 34.1788 34.8105 34.6963 34.8105ZM39.0251 36.7305C39.0251 36.8355 39.0251 36.948 39.0176 37.008H36.0776C36.0926 37.6455 36.4676 38.238 37.2251 38.238C37.9001 38.238 38.1626 37.803 38.2301 37.548H38.9801C38.7776 38.283 38.2151 38.838 37.2101 38.838C35.9951 38.838 35.3201 37.9755 35.3201 36.8055C35.3201 35.6055 36.0401 34.7805 37.2101 34.7805C38.3726 34.7805 39.0251 35.5455 39.0251 36.7305ZM36.0776 36.4305H38.2601C38.2601 35.8305 37.8401 35.3805 37.1876 35.3805C36.5726 35.3805 36.1226 35.8005 36.0776 36.4305ZM42.511 35.3655V33.363H43.246V38.7255H42.511V38.2755H42.496C42.286 38.5455 41.9185 38.8305 41.3185 38.8305C40.3435 38.8305 39.601 38.073 39.601 36.813C39.601 35.553 40.3435 34.788 41.3185 34.788C41.9185 34.788 42.286 35.0655 42.496 35.3655H42.511ZM41.4385 38.223C42.0985 38.223 42.5035 37.6755 42.5035 36.813C42.5035 35.943 42.0985 35.403 41.4385 35.403C40.7185 35.403 40.366 36.063 40.366 36.813C40.366 37.563 40.7185 38.223 41.4385 38.223ZM47.8682 34.788C48.8432 34.788 49.5857 35.553 49.5857 36.813C49.5857 38.073 48.8432 38.8305 47.8682 38.8305C47.2682 38.8305 46.9007 38.5605 46.6907 38.253H46.6757V38.7255H45.9407V33.363H46.6757V35.3505H46.6907C46.9007 35.0805 47.2682 34.788 47.8682 34.788ZM47.7482 38.223C48.4682 38.223 48.8132 37.563 48.8132 36.813C48.8132 36.063 48.4682 35.403 47.7482 35.403C47.0882 35.403 46.6832 35.943 46.6832 36.813C46.6832 37.6755 47.0882 38.223 47.7482 38.223ZM50.7605 40.068C50.5955 40.068 50.483 40.053 50.288 40.0155V39.4155C50.4155 39.4305 50.483 39.438 50.603 39.438C50.8955 39.438 51.2405 39.288 51.3905 38.688L49.8455 34.9005H50.648L51.7655 37.8255H51.7805L52.8305 34.9005H53.603L52.088 38.8155C51.7205 39.7605 51.353 40.068 50.7605 40.068ZM57.9114 38.7255H55.8564V33.363H57.8964C59.3814 33.363 60.2814 34.323 60.2814 36.048C60.2814 37.773 59.3964 38.7255 57.9114 38.7255ZM56.6814 38.013H57.8589C59.1039 38.013 59.4264 37.083 59.4264 36.048C59.4264 35.013 59.1039 34.0755 57.8589 34.0755H56.6814V38.013ZM64.6259 36.7305C64.6259 36.8355 64.6259 36.948 64.6184 37.008H61.6784C61.6934 37.6455 62.0684 38.238 62.8259 38.238C63.5009 38.238 63.7634 37.803 63.8309 37.548H64.5809C64.3784 38.283 63.8159 38.838 62.8109 38.838C61.5959 38.838 60.9209 37.9755 60.9209 36.8055C60.9209 35.6055 61.6409 34.7805 62.8109 34.7805C63.9734 34.7805 64.6259 35.5455 64.6259 36.7305ZM61.6784 36.4305H63.8609C63.8609 35.8305 63.4409 35.3805 62.7884 35.3805C62.1734 35.3805 61.7234 35.8005 61.6784 36.4305ZM68.0968 35.3505V34.9005H68.8318V38.4255C68.8318 39.5805 68.1343 40.098 67.0393 40.098C65.9443 40.098 65.3968 39.573 65.3218 38.883H66.0868C66.1618 39.228 66.4168 39.498 67.0393 39.498C67.7368 39.498 68.0968 39.1905 68.0968 38.4705V37.953H68.0818C67.8718 38.2605 67.5193 38.5305 66.9043 38.5305C65.9518 38.5305 65.2168 37.8855 65.2168 36.663C65.2168 35.433 65.9518 34.788 66.9043 34.788C67.5193 34.788 67.8718 35.0805 68.0818 35.3505H68.0968ZM67.0393 37.923C67.6993 37.923 68.0893 37.4955 68.0893 36.663C68.0893 35.823 67.6993 35.403 67.0393 35.403C66.3193 35.403 65.9818 35.943 65.9818 36.663C65.9818 37.383 66.3193 37.923 67.0393 37.923ZM71.5121 38.838C70.3196 38.838 69.5996 38.013 69.5996 36.813C69.5996 35.6205 70.3196 34.7805 71.5196 34.7805C72.7046 34.7805 73.4246 35.613 73.4246 36.8055C73.4246 38.0055 72.7046 38.838 71.5121 38.838ZM71.5196 38.2305C72.2996 38.2305 72.6596 37.608 72.6596 36.813C72.6596 36.0105 72.2996 35.3955 71.5196 35.3955C70.7246 35.3955 70.3646 36.0105 70.3646 36.813C70.3646 37.608 70.7246 38.2305 71.5196 38.2305ZM75.9777 34.8105C76.1127 34.8105 76.2177 34.818 76.3302 34.833V35.538C76.2402 35.523 76.1727 35.5155 76.0827 35.5155C75.4152 35.5155 74.9352 36.018 74.9352 36.7455V38.7255H74.2002V34.9005H74.9352V35.628H74.9502C75.1527 35.148 75.4602 34.8105 75.9777 34.8105ZM79.5261 35.3655V33.363H80.2611V38.7255H79.5261V38.2755H79.5111C79.3011 38.5455 78.9336 38.8305 78.3336 38.8305C77.3586 38.8305 76.6161 38.073 76.6161 36.813C76.6161 35.553 77.3586 34.788 78.3336 34.788C78.9336 34.788 79.3011 35.0655 79.5111 35.3655H79.5261ZM78.4536 38.223C79.1136 38.223 79.5186 37.6755 79.5186 36.813C79.5186 35.943 79.1136 35.403 78.4536 35.403C77.7336 35.403 77.3811 36.063 77.3811 36.813C77.3811 37.563 77.7336 38.223 78.4536 38.223ZM82.026 34.218H81.1935V33.423H82.026V34.218ZM81.9735 38.7255H81.2385V34.9005H81.9735V38.7255ZM84.006 38.8305C83.241 38.8305 82.7535 38.388 82.7535 37.7355C82.7535 36.8805 83.3985 36.6255 84.351 36.4455C84.951 36.333 85.3185 36.258 85.3185 35.883C85.3185 35.6055 85.1535 35.373 84.591 35.373C83.9235 35.373 83.721 35.583 83.6835 36.093H82.9335C82.971 35.358 83.451 34.7805 84.621 34.7805C85.4085 34.7805 86.0385 35.1105 86.0385 36.1005V37.8555C86.0385 38.133 86.076 38.2755 86.2185 38.2755C86.241 38.2755 86.2635 38.2755 86.3085 38.268V38.718C86.181 38.748 86.0535 38.763 85.9335 38.763C85.566 38.763 85.371 38.6205 85.326 38.1855H85.311C85.0635 38.583 84.6285 38.8305 84.006 38.8305ZM84.171 38.238C84.831 38.238 85.3185 37.9005 85.3185 37.233V36.6855C85.1985 36.798 84.8685 36.8805 84.4785 36.963C83.8035 37.098 83.5185 37.2855 83.5185 37.683C83.5185 38.043 83.7135 38.238 84.171 38.238ZM89.0929 34.788C89.7979 34.788 90.3679 35.193 90.3679 36.0705V38.7255H89.6329V36.273C89.6329 35.763 89.4079 35.418 88.8529 35.418C88.2229 35.418 87.8179 35.8005 87.8179 36.378V38.7255H87.0829V34.9005H87.8179V35.3805H87.8329C88.0354 35.088 88.4329 34.788 89.0929 34.788Z"
            fill="#7B868A" />
    </g>
    <defs>
        <clipPath id="clip0_8_594">
            <rect width="91" height="40" fill="white" />
        </clipPath>
    </defs>
</svg>